<svg width="94" height="14" viewBox="0 0 94 14" fill="none" xmlns="http://www.w3.org/2000/svg">
<path d="M0.632 12C0.525333 12 0.434667 11.9627 0.36 11.888C0.285333 11.8133 0.248 11.7227 0.248 11.616V1.2C0.248 1.08267 0.28 0.986666 0.344 0.912C0.418667 0.837333 0.514667 0.799999 0.632 0.799999H9.016C9.13333 0.799999 9.22933 0.837333 9.304 0.912C9.37867 0.986666 9.416 1.08267 9.416 1.2V11.616C9.416 11.7333 9.37867 11.8293 9.304 11.904C9.22933 11.968 9.13333 12 9.016 12H7.576C7.46933 12 7.37867 11.9627 7.304 11.888C7.22933 11.8133 7.192 11.7227 7.192 11.616V2.8H2.472V11.616C2.472 11.7227 2.43467 11.8133 2.36 11.888C2.296 11.9627 2.20533 12 2.088 12H0.632ZM15.3923 12.16C14.1443 12.16 13.1789 11.84 12.4963 11.2C11.8136 10.5493 11.4456 9.664 11.3923 8.544L11.3763 7.84L11.3923 7.136C11.4456 6.02667 11.8189 5.14667 12.5123 4.496C13.2056 3.84533 14.1656 3.52 15.3923 3.52C16.6189 3.52 17.5789 3.84533 18.2723 4.496C18.9656 5.14667 19.3389 6.02667 19.3923 7.136C19.4029 7.264 19.4083 7.49867 19.4083 7.84C19.4083 8.18133 19.4029 8.416 19.3923 8.544C19.3389 9.664 18.9709 10.5493 18.2883 11.2C17.6056 11.84 16.6403 12.16 15.3923 12.16ZM15.3923 10.576C15.9576 10.576 16.3949 10.4 16.7043 10.048C17.0136 9.68533 17.1843 9.15733 17.2163 8.464C17.2269 8.35733 17.2323 8.14933 17.2323 7.84C17.2323 7.53067 17.2269 7.32267 17.2163 7.216C17.1843 6.52267 17.0136 6 16.7043 5.648C16.3949 5.28533 15.9576 5.104 15.3923 5.104C14.8269 5.104 14.3896 5.28533 14.0803 5.648C13.7709 6 13.6003 6.52267 13.5683 7.216L13.5523 7.84L13.5683 8.464C13.6003 9.15733 13.7709 9.68533 14.0803 10.048C14.3896 10.4 14.8269 10.576 15.3923 10.576ZM20.861 13.76C20.7543 13.76 20.6637 13.7227 20.589 13.648C20.5143 13.584 20.477 13.4933 20.477 13.376V10.688C20.477 10.5813 20.5143 10.4907 20.589 10.416C20.6637 10.3413 20.7543 10.304 20.861 10.304H20.989C21.405 10.304 21.709 9.97333 21.901 9.312C22.093 8.65067 22.189 7.62133 22.189 6.224V4.064C22.189 3.94667 22.2263 3.856 22.301 3.792C22.3757 3.71733 22.4663 3.68 22.573 3.68H28.269C28.3863 3.68 28.477 3.71733 28.541 3.792C28.6157 3.856 28.653 3.94667 28.653 4.064V10.288H29.373C29.4903 10.288 29.581 10.3253 29.645 10.4C29.7197 10.464 29.757 10.5547 29.757 10.672V13.376C29.757 13.4933 29.7197 13.584 29.645 13.648C29.581 13.7227 29.4903 13.76 29.373 13.76H28.061C27.9437 13.76 27.8477 13.7227 27.773 13.648C27.6983 13.5733 27.661 13.4827 27.661 13.376V12H22.573V13.376C22.573 13.4933 22.5357 13.584 22.461 13.648C22.397 13.7227 22.3063 13.76 22.189 13.76H20.861ZM26.573 10.288V5.376H24.205V6.448C24.205 8.28267 23.9543 9.568 23.453 10.304L26.573 10.288ZM31.6119 12C31.5052 12 31.4145 11.9627 31.3399 11.888C31.2652 11.8133 31.2279 11.7227 31.2279 11.616V4.064C31.2279 3.95733 31.2652 3.86667 31.3399 3.792C31.4145 3.71733 31.5052 3.68 31.6119 3.68H38.4599C38.5772 3.68 38.6679 3.71733 38.7319 3.792C38.8065 3.856 38.8439 3.94667 38.8439 4.064V11.616C38.8439 11.7227 38.8065 11.8133 38.7319 11.888C38.6679 11.9627 38.5772 12 38.4599 12H37.1319C37.0252 12 36.9345 11.9627 36.8599 11.888C36.7852 11.8133 36.7479 11.7227 36.7479 11.616V5.376H33.3239V11.616C33.3239 11.7227 33.2865 11.8133 33.2119 11.888C33.1479 11.9627 33.0572 12 32.9399 12H31.6119ZM48.5931 3.68C48.6891 3.68 48.7745 3.71733 48.8491 3.792C48.9238 3.856 48.9611 3.936 48.9611 4.032V11.616C48.9611 11.7227 48.9238 11.8133 48.8491 11.888C48.7745 11.9627 48.6838 12 48.5771 12H47.2491C47.1425 12 47.0518 11.9627 46.9771 11.888C46.9025 11.8133 46.8651 11.7227 46.8651 11.616V6.48L43.0251 11.744C42.9291 11.9147 42.7851 12 42.5931 12H41.3771C41.2811 12 41.1958 11.968 41.1211 11.904C41.0465 11.8293 41.0091 11.7387 41.0091 11.632V4.064C41.0091 3.95733 41.0465 3.86667 41.1211 3.792C41.1958 3.71733 41.2865 3.68 41.3931 3.68H42.7211C42.8385 3.68 42.9291 3.71733 42.9931 3.792C43.0678 3.856 43.1051 3.94667 43.1051 4.064V9.216L46.9451 3.936C47.0625 3.76533 47.2065 3.68 47.3771 3.68H48.5931ZM54.5779 12.16C53.4045 12.16 52.4659 11.8347 51.7619 11.184C51.0685 10.5333 50.7005 9.632 50.6579 8.48L50.6419 7.84L50.6579 7.2C50.7005 6.048 51.0685 5.14667 51.7619 4.496C52.4659 3.84533 53.4045 3.52 54.5779 3.52C55.4099 3.52 56.1139 3.66933 56.6899 3.968C57.2765 4.26667 57.7085 4.63467 57.9859 5.072C58.2739 5.49867 58.4285 5.904 58.4499 6.288C58.4605 6.39467 58.4232 6.48533 58.3379 6.56C58.2632 6.63467 58.1725 6.672 58.0659 6.672H56.6579C56.5512 6.672 56.4659 6.65067 56.4019 6.608C56.3485 6.55467 56.2952 6.46933 56.2419 6.352C56.0819 5.936 55.8685 5.63733 55.6019 5.456C55.3459 5.27467 55.0152 5.184 54.6099 5.184C54.0659 5.184 53.6392 5.36 53.3299 5.712C53.0205 6.05333 52.8552 6.576 52.8339 7.28L52.8179 7.872L52.8339 8.4C52.8765 9.79733 53.4685 10.496 54.6099 10.496C55.0259 10.496 55.3619 10.4053 55.6179 10.224C55.8739 10.0427 56.0819 9.744 56.2419 9.328C56.2952 9.21067 56.3485 9.13067 56.4019 9.088C56.4659 9.03467 56.5512 9.008 56.6579 9.008H58.0659C58.1725 9.008 58.2632 9.04533 58.3379 9.12C58.4232 9.19467 58.4605 9.28533 58.4499 9.392C58.4285 9.76533 58.2792 10.1653 58.0019 10.592C57.7245 11.0187 57.2979 11.3867 56.7219 11.696C56.1459 12.0053 55.4312 12.16 54.5779 12.16ZM62.5345 12.16C61.9905 12.16 61.4892 12.0533 61.0305 11.84C60.5825 11.616 60.2252 11.3173 59.9585 10.944C59.7025 10.5707 59.5745 10.16 59.5745 9.712C59.5745 8.98667 59.8678 8.4 60.4545 7.952C61.0412 7.504 61.8465 7.2 62.8705 7.04L65.0625 6.72V6.384C65.0625 5.91467 64.9452 5.56267 64.7105 5.328C64.4758 5.09333 64.0972 4.976 63.5745 4.976C63.2225 4.976 62.9345 5.04533 62.7105 5.184C62.4972 5.312 62.3265 5.44 62.1985 5.568C62.0705 5.70667 61.9852 5.79733 61.9425 5.84C61.8998 5.968 61.8198 6.032 61.7025 6.032H60.4705C60.3745 6.032 60.2892 6 60.2145 5.936C60.1505 5.872 60.1185 5.78667 60.1185 5.68C60.1292 5.41333 60.2572 5.10933 60.5025 4.768C60.7585 4.42667 61.1478 4.13333 61.6705 3.888C62.1932 3.64267 62.8332 3.52 63.5905 3.52C64.8492 3.52 65.7665 3.80267 66.3425 4.368C66.9185 4.93333 67.2065 5.67467 67.2065 6.592V11.616C67.2065 11.7227 67.1692 11.8133 67.0945 11.888C67.0305 11.9627 66.9398 12 66.8225 12H65.5265C65.4198 12 65.3292 11.9627 65.2545 11.888C65.1798 11.8133 65.1425 11.7227 65.1425 11.616V10.992C64.9078 11.3333 64.5718 11.616 64.1345 11.84C63.7078 12.0533 63.1745 12.16 62.5345 12.16ZM63.0785 10.64C63.6652 10.64 64.1452 10.448 64.5185 10.064C64.8918 9.68 65.0785 9.12 65.0785 8.384V8.048L63.4785 8.304C62.8598 8.4 62.3905 8.55467 62.0705 8.768C61.7612 8.98133 61.6065 9.24267 61.6065 9.552C61.6065 9.89333 61.7505 10.16 62.0385 10.352C62.3265 10.544 62.6732 10.64 63.0785 10.64ZM71.8031 12C71.6965 12 71.6058 11.9627 71.5311 11.888C71.4565 11.8133 71.4191 11.7227 71.4191 11.616V5.376H68.8111C68.7045 5.376 68.6138 5.33867 68.5391 5.264C68.4645 5.18933 68.4271 5.09333 68.4271 4.976V4.064C68.4271 3.94667 68.4645 3.856 68.5391 3.792C68.6138 3.71733 68.7045 3.68 68.8111 3.68H76.0751C76.1925 3.68 76.2885 3.71733 76.3631 3.792C76.4378 3.86667 76.4751 3.95733 76.4751 4.064V4.976C76.4751 5.08267 76.4378 5.17867 76.3631 5.264C76.2885 5.33867 76.1925 5.376 76.0751 5.376H73.4831V11.616C73.4831 11.7227 73.4458 11.8133 73.3711 11.888C73.3071 11.9627 73.2165 12 73.0991 12H71.8031ZM81.3435 12.16C80.1702 12.16 79.2315 11.8347 78.5275 11.184C77.8342 10.5333 77.4662 9.632 77.4235 8.48L77.4075 7.84L77.4235 7.2C77.4662 6.048 77.8342 5.14667 78.5275 4.496C79.2315 3.84533 80.1702 3.52 81.3435 3.52C82.1755 3.52 82.8795 3.66933 83.4555 3.968C84.0422 4.26667 84.4742 4.63467 84.7515 5.072C85.0395 5.49867 85.1942 5.904 85.2155 6.288C85.2262 6.39467 85.1888 6.48533 85.1035 6.56C85.0288 6.63467 84.9382 6.672 84.8315 6.672H83.4235C83.3168 6.672 83.2315 6.65067 83.1675 6.608C83.1142 6.55467 83.0608 6.46933 83.0075 6.352C82.8475 5.936 82.6342 5.63733 82.3675 5.456C82.1115 5.27467 81.7808 5.184 81.3755 5.184C80.8315 5.184 80.4048 5.36 80.0955 5.712C79.7862 6.05333 79.6208 6.576 79.5995 7.28L79.5835 7.872L79.5995 8.4C79.6422 9.79733 80.2342 10.496 81.3755 10.496C81.7915 10.496 82.1275 10.4053 82.3835 10.224C82.6395 10.0427 82.8475 9.744 83.0075 9.328C83.0608 9.21067 83.1142 9.13067 83.1675 9.088C83.2315 9.03467 83.3168 9.008 83.4235 9.008H84.8315C84.9382 9.008 85.0288 9.04533 85.1035 9.12C85.1888 9.19467 85.2262 9.28533 85.2155 9.392C85.1942 9.76533 85.0448 10.1653 84.7675 10.592C84.4902 11.0187 84.0635 11.3867 83.4875 11.696C82.9115 12.0053 82.1968 12.16 81.3435 12.16ZM93.5241 3.68C93.6415 3.68 93.7321 3.71733 93.7961 3.792C93.8708 3.856 93.9081 3.94667 93.9081 4.064V11.616C93.9081 11.7227 93.8708 11.8133 93.7961 11.888C93.7321 11.9627 93.6415 12 93.5241 12H92.1641C92.0575 12 91.9668 11.9627 91.8921 11.888C91.8175 11.8133 91.7801 11.7227 91.7801 11.616V9.168H90.3561L88.7721 11.76C88.6761 11.92 88.5428 12 88.3721 12H87.0441C86.9481 12 86.8681 11.968 86.8041 11.904C86.7401 11.84 86.7081 11.7653 86.7081 11.68C86.7081 11.584 86.7401 11.4987 86.8041 11.424L88.4841 8.784C87.9828 8.57067 87.6041 8.26133 87.3481 7.856C87.0921 7.44 86.9641 6.94933 86.9641 6.384C86.9641 5.488 87.2415 4.816 87.7961 4.368C88.3615 3.90933 89.1828 3.68 90.2601 3.68H93.5241ZM91.8121 5.2H90.3081C89.8068 5.2 89.4388 5.29067 89.2041 5.472C88.9801 5.65333 88.8681 5.95733 88.8681 6.384C88.8681 6.77867 88.9801 7.088 89.2041 7.312C89.4281 7.536 89.7641 7.648 90.2121 7.648H91.8121V5.2Z" fill="white"/>
</svg>
